<svg width="100%" height="100%" id="svg" viewBox="0 0 1440 614" xmlns="http://www.w3.org/2000/svg"><path d="M 0,624 C 0,624 0,156 0,156 C 97,124.35714285714286 194,92.71428571428571 325,108 C 456,123.28571428571429 621.0000000000001,185.50000000000003 746,197 C 870.9999999999999,208.49999999999997 956,169.28571428571428 1065,154 C 1174,138.71428571428572 1307,147.35714285714286 1440,156 C 1440,156 1440,624 1440,624 Z" stroke="none" stroke-width="0" fill="rgba(105, 203, 1, 1)" fill-opacity="0.4" class="path-0" style="transition-property: all; transition-timing-function: cubic-bezier(0.4, 0, 0.2, 1); transition-duration: 300ms; transition-delay: 150ms;"></path><path d="M 0,624 C 0,624 0,312 0,312 C 140.82142857142856,321.67857142857144 281.6428571428571,331.35714285714283 400,345 C 518.3571428571429,358.64285714285717 614.25,376.25 735,354 C 855.75,331.75 1001.3571428571429,269.6428571428571 1123,256 C 1244.642857142857,242.35714285714286 1342.3214285714284,277.17857142857144 1440,312 C 1440,312 1440,624 1440,624 Z" stroke="none" stroke-width="0" fill="rgba(105, 203, 1, 1)" fill-opacity="0.53" class="path-1" style="transition-property: all; transition-timing-function: cubic-bezier(0.4, 0, 0.2, 1); transition-duration: 300ms; transition-delay: 150ms;"></path><path d="M 0,624 C 0,624 0,468 0,468 C 103.07142857142858,475.07142857142856 206.14285714285717,482.14285714285717 309,494 C 411.85714285714283,505.85714285714283 514.5,522.5 654,516 C 793.5,509.49999999999994 969.8571428571427,479.8571428571429 1107,468 C 1244.1428571428573,456.1428571428571 1342.0714285714287,462.07142857142856 1440,468 C 1440,468 1440,624 1440,624 Z" stroke="none" stroke-width="0" fill="rgba(105, 203, 1, 1)" fill-opacity="1" class="path-2" style="transition-property: all; transition-timing-function: cubic-bezier(0.4, 0, 0.2, 1); transition-duration: 300ms; transition-delay: 150ms;"></path></svg>